<svg width="24" height="24" viewBox="0 0 24 24" fill="none" xmlns="http://www.w3.org/2000/svg">
<path d="M16.3999 8.7001C16.3999 12.9572 12.9569 16.4002 8.69994 16.4002C8.34794 16.4002 8.00695 16.3782 7.67695 16.3232C3.90398 15.8282 1 12.6051 1 8.7001C1 4.44304 4.44297 1 8.69994 1C12.6049 1 15.8279 3.90404 16.3229 7.67709C16.3779 8.00709 16.3999 8.34809 16.3999 8.7001Z" stroke="#012754" stroke-width="2" stroke-linecap="round" stroke-linejoin="round"/>
<path opacity="0.4" d="M22.9999 15.2999C22.9999 19.5569 19.5569 23 15.2999 23C11.395 23 8.172 20.0959 7.677 16.3229C8.007 16.3779 8.348 16.3999 8.69999 16.3999C12.957 16.3999 16.3999 12.9568 16.3999 8.69977C16.3999 8.34777 16.3779 8.00676 16.3229 7.67676C20.0959 8.17176 22.9999 11.3948 22.9999 15.2999Z" stroke="#012754" stroke-width="2" stroke-linecap="round" stroke-linejoin="round"/>
<path opacity="0.4" d="M14.3647 14.332L15.8057 15.751" stroke="#012754" stroke-width="2" stroke-linecap="round" stroke-linejoin="round"/>
<path opacity="0.4" d="M17.4999 11.9999L16.3999 10.8999" stroke="#012754" stroke-width="2" stroke-linecap="round" stroke-linejoin="round"/>
<path opacity="0.4" d="M11.9999 17.4999L10.8999 16.3999" stroke="#012754" stroke-width="2" stroke-linecap="round" stroke-linejoin="round"/>
</svg>
