<svg width="24" height="24" viewBox="0 0 24 24" fill="none" xmlns="http://www.w3.org/2000/svg">
<path d="M12.5828 22.9997H3.32096C2.04498 22.9997 1 21.9768 1 20.7228V4.39929C1 1.51737 3.14496 0.208407 5.77391 1.49537L10.6578 3.8933C11.7138 4.41029 12.5828 5.78524 12.5828 6.95121V22.9997Z" stroke="#012754" stroke-width="2" stroke-linecap="round" stroke-linejoin="round"/>
<path d="M22.9996 15.3661V19.5239C22.9996 21.8999 21.8996 22.9998 19.5236 22.9998H12.5828V10.2622L13.0998 10.3722L18.0497 11.4832L20.2826 11.9782C21.7346 12.2971 22.9226 13.0451 22.9886 15.1571C22.9996 15.2231 22.9996 15.2891 22.9996 15.3661Z" stroke="#012754" stroke-width="2" stroke-linecap="round" stroke-linejoin="round"/>
<path opacity="0.4" d="M4.88281 8.7002H8.69974" stroke="#012754" stroke-width="2" stroke-linecap="round" stroke-linejoin="round"/>
<path opacity="0.4" d="M4.88281 13.1001H8.69974" stroke="#012754" stroke-width="2" stroke-linecap="round" stroke-linejoin="round"/>
<path d="M18.0498 11.4835V15.0254C18.0498 16.3894 16.9388 17.5004 15.5748 17.5004C14.2108 17.5004 13.0999 16.3894 13.0999 15.0254V10.3726L18.0498 11.4835Z" stroke="#012754" stroke-width="2" stroke-linecap="round" stroke-linejoin="round"/>
<path d="M22.9885 15.1568C22.9225 16.4548 21.8445 17.4997 20.5245 17.4997C19.1605 17.4997 18.0496 16.3888 18.0496 15.0248V11.4829L20.2825 11.9779C21.7345 12.2969 22.9225 13.0449 22.9885 15.1568Z" stroke="#012754" stroke-width="2" stroke-linecap="round" stroke-linejoin="round"/>
</svg>
