<svg width="18" height="18" viewBox="0 0 18 18" fill="none" xmlns="http://www.w3.org/2000/svg">
<path d="M11.6667 3.16216H17M17 3.16216L14.7778 5.32432M17 3.16216L14.7778 1M2.77778 2.2973H6.33333L8.11111 6.62162L5.88889 7.91892C6.84085 9.797 8.40308 11.317 10.3333 12.2432L11.6667 10.0811L16.1111 11.8108V15.2703C16.1111 15.729 15.9238 16.169 15.5904 16.4934C15.257 16.8178 14.8048 17 14.3333 17C7.15822 16.5762 1.43556 11.0082 1 4.02703C1 3.56827 1.1873 3.12831 1.5207 2.80392C1.8541 2.47954 2.30628 2.2973 2.77778 2.2973Z" stroke="#64CCC9" stroke-width="2" stroke-linecap="round" stroke-linejoin="round"/>
</svg>
