<svg width="31" height="31" viewBox="0 0 31 31" fill="none" xmlns="http://www.w3.org/2000/svg">
<path d="M2.45416 12.9551H28.2875" stroke="#012754" stroke-width="2" stroke-miterlimit="10" stroke-linecap="round" stroke-linejoin="round"/>
<path d="M14.8025 26.5177H8.20202C3.6166 26.5177 2.45416 25.381 2.45416 20.8473V10.2298C2.45416 6.12227 3.40995 4.80477 7.0137 4.5981C7.37537 4.58519 7.77577 4.57227 8.20202 4.57227H22.5525C27.1379 4.57227 28.3003 5.70893 28.3003 10.2427V15.9389" stroke="#012754" stroke-width="2" stroke-linecap="round" stroke-linejoin="round"/>
<path opacity="0.4" d="M23.1208 28.4549C25.9743 28.4549 28.2875 26.1417 28.2875 23.2882C28.2875 20.4348 25.9743 18.1216 23.1208 18.1216C20.2674 18.1216 17.9542 20.4348 17.9542 23.2882C17.9542 26.1417 20.2674 28.4549 23.1208 28.4549Z" stroke="#012754" stroke-width="2" stroke-miterlimit="10" stroke-linecap="round" stroke-linejoin="round"/>
<g opacity="0.4">
<path d="M24.5027 24.7359L21.7773 21.9976" stroke="#012754" stroke-width="2" stroke-miterlimit="10" stroke-linecap="round" stroke-linejoin="round"/>
<path d="M24.4772 22.0361L21.7388 24.7616" stroke="#012754" stroke-width="2" stroke-miterlimit="10" stroke-linecap="round" stroke-linejoin="round"/>
</g>
<path opacity="0.4" d="M7.62085 20.7051H12.7875" stroke="#012754" stroke-width="2" stroke-miterlimit="10" stroke-linecap="round" stroke-linejoin="round"/>
</svg>
