<svg width="24" height="24" viewBox="0 0 24 24" fill="none" xmlns="http://www.w3.org/2000/svg">
<g clip-path="url(#clip0_693_372)">
<path d="M23.6002 11.9999C23.6002 18.6527 18.0042 23.9947 11.261 23.5771C5.48336 23.2191 0.780958 18.5167 0.423358 12.7391C0.00535831 5.9959 5.34736 0.399902 12.0002 0.399902C13.8274 0.399902 15.5574 0.821502 17.0962 1.5763C17.5086 1.7787 17.6598 2.2923 17.4322 2.6915L17.4306 2.6943C17.2202 3.0631 16.761 3.2003 16.3802 3.0127C14.853 2.2607 13.107 1.8947 11.2642 2.0263C6.42416 2.3715 2.47136 6.2535 2.04056 11.0867C1.50456 17.1023 6.32536 22.1515 12.2658 21.9963C17.353 21.8635 21.5994 17.8291 21.9718 12.7539C22.0686 11.4355 21.9098 10.1591 21.5322 8.9823C21.4126 8.6091 21.5866 8.2063 21.937 8.0311C22.3746 7.8123 22.911 8.0311 23.0594 8.4971C23.4106 9.6015 23.6002 10.7783 23.6002 11.9999Z" fill="#012754" fill-opacity="0.3"/>
<path d="M6.16414 8.9887L12.4897 17.5475C12.9673 18.1939 13.9393 18.1379 14.3421 17.4411L23.4829 1.6179C23.9589 0.793896 22.8729 -0.0345042 22.2253 0.659096L12.7021 10.8599L7.17654 7.8015C6.42974 7.3883 5.65374 8.2979 6.16414 8.9887Z" fill="#64CCC9"/>
</g>
<defs>
<clipPath id="clip0_693_372">
<rect width="24" height="24" fill="white"/>
</clipPath>
</defs>
</svg>
