<svg width="24" height="24" viewBox="0 0 24 24" fill="none" xmlns="http://www.w3.org/2000/svg">
<g opacity="0.4">
<path d="M7.60669 11.3507C7.60669 12.1985 8.26735 12.8922 9.07115 12.8922H10.7228C11.4275 12.8922 12.0001 12.2866 12.0001 11.5489C12.0001 10.7451 11.6477 10.4588 11.1302 10.2716L8.48757 9.3467C7.95904 9.15951 7.60669 8.87322 7.60669 8.06942C7.60669 7.33168 8.17926 6.72607 8.88397 6.72607H10.5356C11.3504 6.73709 12.0111 7.41977 12.0111 8.26762" stroke="#012754" stroke-width="2" stroke-linecap="round" stroke-linejoin="round"/>
<path d="M9.80884 12.9468V13.7616" stroke="#012754" stroke-width="2" stroke-linecap="round" stroke-linejoin="round"/>
<path d="M9.80884 5.85596V6.71482" stroke="#012754" stroke-width="2" stroke-linecap="round" stroke-linejoin="round"/>
</g>
<path d="M9.79779 18.5956C14.6567 18.5956 18.5956 14.6567 18.5956 9.7978C18.5956 4.93891 14.6567 1 9.79779 1C4.9389 1 1 4.93891 1 9.7978C1 14.6567 4.9389 18.5956 9.79779 18.5956Z" stroke="#012754" stroke-width="2" stroke-linecap="round" stroke-linejoin="round"/>
<path opacity="0.4" d="M13.0901 20.6879C14.0811 22.0863 15.6997 23.0002 17.5495 23.0002C20.5555 23.0002 23 20.5557 23 17.5497C23 15.7219 22.0971 14.1033 20.7207 13.1123" stroke="#012754" stroke-width="2" stroke-linecap="round" stroke-linejoin="round"/>
</svg>
