<svg width="30" height="30" viewBox="0 0 30 30" fill="none" xmlns="http://www.w3.org/2000/svg">
<path d="M15 6.9502H27.5" stroke="#012754" stroke-width="2" stroke-miterlimit="10" stroke-linecap="round" stroke-linejoin="round"/>
<path d="M17.775 2.5H24.725C26.95 2.5 27.5 3.05 27.5 5.25V10.3875C27.5 12.5875 26.95 13.1375 24.725 13.1375H17.775C15.55 13.1375 15 12.5875 15 10.3875V5.25C15 3.05 15.55 2.5 17.775 2.5Z" stroke="#012754" stroke-width="2" stroke-linecap="round" stroke-linejoin="round"/>
<path d="M2.5 21.3252H15" stroke="#012754" stroke-width="2" stroke-miterlimit="10" stroke-linecap="round" stroke-linejoin="round"/>
<path d="M5.275 16.875H12.225C14.45 16.875 15 17.425 15 19.625V24.7625C15 26.9625 14.45 27.5125 12.225 27.5125H5.275C3.05 27.5125 2.5 26.9625 2.5 24.7625V19.625C2.5 17.425 3.05 16.875 5.275 16.875Z" stroke="#012754" stroke-width="2" stroke-linecap="round" stroke-linejoin="round"/>
<path opacity="0.4" d="M27.5 18.75C27.5 23.5875 23.5875 27.5 18.75 27.5L20.0625 25.3125" stroke="#012754" stroke-width="2" stroke-linecap="round" stroke-linejoin="round"/>
<path opacity="0.4" d="M2.5 11.25C2.5 6.4125 6.4125 2.5 11.25 2.5L9.93752 4.6875" stroke="#012754" stroke-width="2" stroke-linecap="round" stroke-linejoin="round"/>
</svg>
