<svg width="30" height="30" viewBox="0 0 30 30" fill="none" xmlns="http://www.w3.org/2000/svg">
<path d="M2.5 27.5H27.5" stroke="#012754" stroke-width="2" stroke-miterlimit="10" stroke-linecap="round" stroke-linejoin="round"/>
<path d="M18.7625 27.4873L3.76251 27.5123L3.75 8.83733C3.75 7.99983 4.17502 7.22478 4.86252 6.76228L9.86252 3.4248C10.7 2.8623 11.8 2.8623 12.6375 3.4248L17.6375 6.76228C18.3375 7.22478 18.75 7.99983 18.75 8.83733L18.7625 27.4873Z" stroke="#012754" stroke-width="2" stroke-miterlimit="10" stroke-linecap="round" stroke-linejoin="round"/>
<path opacity="0.4" d="M24.9751 27.5125V22.5" stroke="#012754" stroke-width="2" stroke-miterlimit="10" stroke-linecap="round" stroke-linejoin="round"/>
<path d="M25 15C23.625 15 22.5 16.125 22.5 17.5V20C22.5 21.375 23.625 22.5 25 22.5C26.375 22.5 27.5 21.375 27.5 20V17.5C27.5 16.125 26.375 15 25 15Z" stroke="#012754" stroke-width="2" stroke-miterlimit="10" stroke-linecap="round" stroke-linejoin="round"/>
<path d="M3.75 17.5H18.75" stroke="#012754" stroke-width="2" stroke-miterlimit="10" stroke-linecap="round" stroke-linejoin="round"/>
<path opacity="0.4" d="M11.25 27.5V22.8125" stroke="#012754" stroke-width="2" stroke-miterlimit="10" stroke-linecap="round" stroke-linejoin="round"/>
<path opacity="0.4" d="M11.25 13.125C12.2855 13.125 13.125 12.2855 13.125 11.25C13.125 10.2145 12.2855 9.375 11.25 9.375C10.2145 9.375 9.375 10.2145 9.375 11.25C9.375 12.2855 10.2145 13.125 11.25 13.125Z" stroke="#012754" stroke-width="2" stroke-miterlimit="10" stroke-linecap="round" stroke-linejoin="round"/>
</svg>
