<svg width="20" height="18" viewBox="0 0 20 18" fill="none" xmlns="http://www.w3.org/2000/svg">
<path d="M11 14.1765H3C2.46957 14.1765 1.96086 13.9782 1.58579 13.6251C1.21071 13.2721 1 12.7933 1 12.2941V2.88235M1 2.88235C1 2.38312 1.21071 1.90434 1.58579 1.55133C1.96086 1.19832 2.46957 1 3 1H17C17.5304 1 18.0391 1.19832 18.4142 1.55133C18.7893 1.90434 19 2.38312 19 2.88235M1 2.88235L10 8.52941L19 2.88235M19 2.88235V8.52941M14 17L19 12.2941M19 12.2941V16.5294M19 12.2941H14.5" stroke="#64CCC9" stroke-width="2" stroke-linecap="round" stroke-linejoin="round"/>
</svg>
