<svg width="31" height="31" viewBox="0 0 31 31" fill="none" xmlns="http://www.w3.org/2000/svg">
<path d="M2.58334 19.6332V11.6248C2.58334 7.104 5.16668 5.1665 9.04168 5.1665H21.9583C25.8333 5.1665 28.4167 7.104 28.4167 11.6248V19.3748C28.4167 23.8957 25.8333 25.8332 21.9583 25.8332H10.9792" stroke="#012754" stroke-width="2" stroke-miterlimit="10" stroke-linecap="round" stroke-linejoin="round"/>
<path opacity="0.4" d="M15.5 18.7293C17.2834 18.7293 18.7292 17.2836 18.7292 15.5002C18.7292 13.7167 17.2834 12.271 15.5 12.271C13.7166 12.271 12.2708 13.7167 12.2708 15.5002C12.2708 17.2836 13.7166 18.7293 15.5 18.7293Z" stroke="#012754" stroke-width="2" stroke-miterlimit="10" stroke-linecap="round" stroke-linejoin="round"/>
<path opacity="0.4" d="M23.8958 12.271V18.7293" stroke="#012754" stroke-width="2" stroke-miterlimit="10" stroke-linecap="round" stroke-linejoin="round"/>
<path d="M11.625 23.2502C11.625 24.2189 11.3537 25.136 10.8758 25.911C9.98455 27.4093 8.34416 28.4168 6.45832 28.4168C4.57249 28.4168 2.9321 27.4093 2.04085 25.911C1.56293 25.136 1.29166 24.2189 1.29166 23.2502C1.29166 20.3956 3.60374 18.0835 6.45832 18.0835C9.31291 18.0835 11.625 20.3956 11.625 23.2502Z" stroke="#012754" stroke-width="2" stroke-miterlimit="10" stroke-linecap="round" stroke-linejoin="round"/>
<path d="M10.0104 19.6978L2.90625 26.8019" stroke="#012754" stroke-width="2" stroke-miterlimit="10" stroke-linecap="round" stroke-linejoin="round"/>
</svg>
