<svg width="31" height="31" viewBox="0 0 31 31" fill="none" xmlns="http://www.w3.org/2000/svg">
<path d="M10.3334 2.5835V6.4585" stroke="#012754" stroke-width="2" stroke-miterlimit="10" stroke-linecap="round" stroke-linejoin="round"/>
<path d="M20.6666 2.5835V6.4585" stroke="#012754" stroke-width="2" stroke-miterlimit="10" stroke-linecap="round" stroke-linejoin="round"/>
<path d="M27.125 10.9793V17.6056C25.9754 16.6885 24.5158 16.146 22.9271 16.146C21.3383 16.146 19.8529 16.7014 18.6904 17.6443C17.1275 18.8714 16.1458 20.796 16.1458 22.9272C16.1458 24.1931 16.5075 25.4073 17.1275 26.4148C17.6054 27.2027 18.2254 27.8872 18.9617 28.4168H10.3333C5.8125 28.4168 3.875 25.8335 3.875 21.9585V10.9793C3.875 7.10433 5.8125 4.521 10.3333 4.521H20.6667C25.1875 4.521 27.125 7.10433 27.125 10.9793Z" stroke="#012754" stroke-width="2" stroke-miterlimit="10" stroke-linecap="round" stroke-linejoin="round"/>
<path opacity="0.4" d="M9.04163 14.2085H16.7916" stroke="#012754" stroke-width="2" stroke-miterlimit="10" stroke-linecap="round" stroke-linejoin="round"/>
<path opacity="0.4" d="M9.04163 20.6665H12.4258" stroke="#012754" stroke-width="2" stroke-miterlimit="10" stroke-linecap="round" stroke-linejoin="round"/>
<path d="M29.7084 22.9272C29.7084 24.1931 29.3467 25.4073 28.7267 26.4148C28.365 27.0348 27.913 27.5772 27.3834 28.0164C26.1951 29.0756 24.645 29.7085 22.9271 29.7085C21.4417 29.7085 20.0725 29.2306 18.9617 28.4168C18.2254 27.8872 17.6055 27.2027 17.1276 26.4148C16.5076 25.4073 16.1459 24.1931 16.1459 22.9272C16.1459 20.796 17.1275 18.8714 18.6905 17.6443C19.853 16.7014 21.3384 16.146 22.9271 16.146C24.5159 16.146 25.9755 16.6885 27.125 17.6056C28.7009 18.8456 29.7084 20.7702 29.7084 22.9272Z" stroke="#012754" stroke-width="2" stroke-miterlimit="10" stroke-linecap="round" stroke-linejoin="round"/>
<path opacity="0.4" d="M22.927 26.1561C22.927 24.3736 24.3737 22.9269 26.1562 22.9269C24.3737 22.9269 22.927 21.4803 22.927 19.6978C22.927 21.4803 21.4804 22.9269 19.6979 22.9269C21.4804 22.9269 22.927 24.3736 22.927 26.1561Z" stroke="#012754" stroke-width="2" stroke-linecap="round" stroke-linejoin="round"/>
</svg>
