<svg width="31" height="31" viewBox="0 0 31 31" fill="none" xmlns="http://www.w3.org/2000/svg">
<path d="M13.5496 2.88039L7.10418 5.29581C5.61876 5.85122 4.4046 7.60789 4.4046 9.19664V18.7937C4.4046 20.3179 5.41212 22.32 6.6392 23.2371L12.1934 27.3833C14.0146 28.7525 17.0112 28.7525 18.8325 27.3833L24.3867 23.2371C25.6138 22.32 26.6212 20.3179 26.6212 18.7937V9.19664C26.6212 7.60789 25.4071 5.85122 23.9217 5.29581L17.4763 2.88039C16.3783 2.47997 14.6217 2.47997 13.5496 2.88039Z" stroke="#012754" stroke-width="2" stroke-linecap="round" stroke-linejoin="round"/>
<path opacity="0.4" d="M15.5 20.0208C18.3535 20.0208 20.6667 17.7076 20.6667 14.8542C20.6667 12.0007 18.3535 9.6875 15.5 9.6875C12.6465 9.6875 10.3333 12.0007 10.3333 14.8542C10.3333 17.7076 12.6465 20.0208 15.5 20.0208Z" stroke="#012754" stroke-width="2" stroke-miterlimit="10" stroke-linecap="round" stroke-linejoin="round"/>
<path opacity="0.4" d="M15.8229 13.2397V14.441C15.8229 14.8931 15.5904 15.3193 15.19 15.5518L14.2083 16.146" stroke="#012754" stroke-width="2" stroke-miterlimit="10" stroke-linecap="round" stroke-linejoin="round"/>
</svg>
